<mxfile host="Electron" modified="2024-11-22T07:46:45.659Z" agent="Mozilla/5.0 (Macintosh; Intel Mac OS X 10_15_7) AppleWebKit/537.36 (KHTML, like Gecko) draw.io/24.6.4 Chrome/124.0.6367.207 Electron/30.0.6 Safari/537.36" etag="2jqLbFRk5cBqpUjTMlKC" version="24.6.4" type="device">
  <diagram id="nsmT3PNoQU8JvnhOQlfl" name="Page-1">
    <mxGraphModel dx="186" dy="123" grid="1" gridSize="10" guides="1" tooltips="1" connect="1" arrows="1" fold="1" page="1" pageScale="1" pageWidth="827" pageHeight="1169" math="0" shadow="0">
      <root>
        <mxCell id="0" />
        <mxCell id="1" parent="0" />
        <mxCell id="MXWugfOjqB2NSdrZS_m6-11" style="edgeStyle=orthogonalEdgeStyle;rounded=0;orthogonalLoop=1;jettySize=auto;html=1;exitX=0.25;exitY=1;exitDx=0;exitDy=0;entryX=0.25;entryY=0;entryDx=0;entryDy=0;" parent="1" source="MXWugfOjqB2NSdrZS_m6-1" target="MXWugfOjqB2NSdrZS_m6-10" edge="1">
          <mxGeometry relative="1" as="geometry" />
        </mxCell>
        <mxCell id="zSmYZG-ffIdehZfoHpam-26" style="edgeStyle=orthogonalEdgeStyle;rounded=0;orthogonalLoop=1;jettySize=auto;html=1;exitX=1;exitY=0.25;exitDx=0;exitDy=0;" parent="1" source="MXWugfOjqB2NSdrZS_m6-1" target="MXWugfOjqB2NSdrZS_m6-8" edge="1">
          <mxGeometry relative="1" as="geometry">
            <Array as="points">
              <mxPoint x="520" y="265" />
            </Array>
          </mxGeometry>
        </mxCell>
        <mxCell id="MXWugfOjqB2NSdrZS_m6-1" value="WebSub" style="rounded=0;whiteSpace=wrap;html=1;" parent="1" vertex="1">
          <mxGeometry x="280" y="250" width="120" height="60" as="geometry" />
        </mxCell>
        <mxCell id="MXWugfOjqB2NSdrZS_m6-3" value="Registration Processor" style="rounded=0;whiteSpace=wrap;html=1;" parent="1" vertex="1">
          <mxGeometry x="40" y="160" width="106" height="60" as="geometry" />
        </mxCell>
        <mxCell id="MXWugfOjqB2NSdrZS_m6-7" style="edgeStyle=orthogonalEdgeStyle;rounded=0;orthogonalLoop=1;jettySize=auto;html=1;exitX=1;exitY=0.5;exitDx=0;exitDy=0;" parent="1" edge="1">
          <mxGeometry relative="1" as="geometry">
            <mxPoint x="400" y="177" as="sourcePoint" />
            <mxPoint x="500" y="177" as="targetPoint" />
          </mxGeometry>
        </mxCell>
        <mxCell id="MXWugfOjqB2NSdrZS_m6-16" style="edgeStyle=orthogonalEdgeStyle;rounded=0;orthogonalLoop=1;jettySize=auto;html=1;exitX=0.25;exitY=0;exitDx=0;exitDy=0;entryX=0.25;entryY=1;entryDx=0;entryDy=0;" parent="1" source="MXWugfOjqB2NSdrZS_m6-4" target="MXWugfOjqB2NSdrZS_m6-15" edge="1">
          <mxGeometry relative="1" as="geometry" />
        </mxCell>
        <mxCell id="MXWugfOjqB2NSdrZS_m6-20" style="edgeStyle=orthogonalEdgeStyle;rounded=0;orthogonalLoop=1;jettySize=auto;html=1;exitX=0;exitY=0.75;exitDx=0;exitDy=0;entryX=1;entryY=0.75;entryDx=0;entryDy=0;" parent="1" source="MXWugfOjqB2NSdrZS_m6-4" target="MXWugfOjqB2NSdrZS_m6-3" edge="1">
          <mxGeometry relative="1" as="geometry" />
        </mxCell>
        <mxCell id="MXWugfOjqB2NSdrZS_m6-4" value="ID Repository" style="rounded=0;whiteSpace=wrap;html=1;" parent="1" vertex="1">
          <mxGeometry x="280" y="160" width="120" height="60" as="geometry" />
        </mxCell>
        <mxCell id="MXWugfOjqB2NSdrZS_m6-6" value="" style="endArrow=classic;html=1;rounded=0;exitX=1;exitY=0.5;exitDx=0;exitDy=0;" parent="1" edge="1">
          <mxGeometry width="50" height="50" relative="1" as="geometry">
            <mxPoint x="146" y="177" as="sourcePoint" />
            <mxPoint x="280" y="177" as="targetPoint" />
          </mxGeometry>
        </mxCell>
        <mxCell id="MXWugfOjqB2NSdrZS_m6-23" style="edgeStyle=orthogonalEdgeStyle;rounded=0;orthogonalLoop=1;jettySize=auto;html=1;exitX=0;exitY=0.75;exitDx=0;exitDy=0;entryX=1;entryY=0.75;entryDx=0;entryDy=0;" parent="1" source="MXWugfOjqB2NSdrZS_m6-8" target="MXWugfOjqB2NSdrZS_m6-4" edge="1">
          <mxGeometry relative="1" as="geometry" />
        </mxCell>
        <mxCell id="MXWugfOjqB2NSdrZS_m6-27" style="edgeStyle=orthogonalEdgeStyle;rounded=0;orthogonalLoop=1;jettySize=auto;html=1;exitX=1;exitY=0.75;exitDx=0;exitDy=0;" parent="1" source="MXWugfOjqB2NSdrZS_m6-8" target="MXWugfOjqB2NSdrZS_m6-26" edge="1">
          <mxGeometry relative="1" as="geometry" />
        </mxCell>
        <mxCell id="MXWugfOjqB2NSdrZS_m6-8" value="Credential Request Generator Service" style="rounded=0;whiteSpace=wrap;html=1;" parent="1" vertex="1">
          <mxGeometry x="500" y="160" width="120" height="60" as="geometry" />
        </mxCell>
        <mxCell id="MXWugfOjqB2NSdrZS_m6-28" style="edgeStyle=orthogonalEdgeStyle;rounded=0;orthogonalLoop=1;jettySize=auto;html=1;exitX=1;exitY=0.25;exitDx=0;exitDy=0;entryX=0.145;entryY=1;entryDx=0;entryDy=-4.35;entryPerimeter=0;" parent="1" source="MXWugfOjqB2NSdrZS_m6-9" target="MXWugfOjqB2NSdrZS_m6-26" edge="1">
          <mxGeometry relative="1" as="geometry" />
        </mxCell>
        <mxCell id="MXWugfOjqB2NSdrZS_m6-29" style="edgeStyle=orthogonalEdgeStyle;rounded=0;orthogonalLoop=1;jettySize=auto;html=1;exitX=0;exitY=0.25;exitDx=0;exitDy=0;" parent="1" source="MXWugfOjqB2NSdrZS_m6-9" target="MXWugfOjqB2NSdrZS_m6-1" edge="1">
          <mxGeometry relative="1" as="geometry">
            <Array as="points">
              <mxPoint x="430" y="285" />
              <mxPoint x="430" y="285" />
            </Array>
          </mxGeometry>
        </mxCell>
        <mxCell id="MXWugfOjqB2NSdrZS_m6-40" style="edgeStyle=orthogonalEdgeStyle;rounded=0;orthogonalLoop=1;jettySize=auto;html=1;exitX=0.5;exitY=1;exitDx=0;exitDy=0;entryX=0.5;entryY=0;entryDx=0;entryDy=0;" parent="1" source="MXWugfOjqB2NSdrZS_m6-9" target="MXWugfOjqB2NSdrZS_m6-39" edge="1">
          <mxGeometry relative="1" as="geometry" />
        </mxCell>
        <mxCell id="MXWugfOjqB2NSdrZS_m6-9" value="Credential Service (Job)" style="rounded=0;whiteSpace=wrap;html=1;" parent="1" vertex="1">
          <mxGeometry x="500" y="270" width="120" height="60" as="geometry" />
        </mxCell>
        <mxCell id="MXWugfOjqB2NSdrZS_m6-12" style="edgeStyle=orthogonalEdgeStyle;rounded=0;orthogonalLoop=1;jettySize=auto;html=1;exitX=0.75;exitY=0;exitDx=0;exitDy=0;entryX=0.75;entryY=1;entryDx=0;entryDy=0;" parent="1" source="MXWugfOjqB2NSdrZS_m6-10" target="MXWugfOjqB2NSdrZS_m6-1" edge="1">
          <mxGeometry relative="1" as="geometry" />
        </mxCell>
        <mxCell id="MXWugfOjqB2NSdrZS_m6-41" style="edgeStyle=orthogonalEdgeStyle;rounded=0;orthogonalLoop=1;jettySize=auto;html=1;exitX=0.5;exitY=1;exitDx=0;exitDy=0;entryX=0.5;entryY=0;entryDx=0;entryDy=0;entryPerimeter=0;" parent="1" source="MXWugfOjqB2NSdrZS_m6-10" target="MXWugfOjqB2NSdrZS_m6-25" edge="1">
          <mxGeometry relative="1" as="geometry">
            <mxPoint x="341" y="490" as="targetPoint" />
          </mxGeometry>
        </mxCell>
        <mxCell id="MXWugfOjqB2NSdrZS_m6-10" value="ID Authentication" style="rounded=0;whiteSpace=wrap;html=1;" parent="1" vertex="1">
          <mxGeometry x="280" y="393" width="120" height="60" as="geometry" />
        </mxCell>
        <mxCell id="MXWugfOjqB2NSdrZS_m6-13" value="Add / Update Identity Request" style="text;html=1;strokeColor=none;fillColor=none;align=center;verticalAlign=middle;whiteSpace=wrap;rounded=0;" parent="1" vertex="1">
          <mxGeometry x="170" y="146" width="90" height="30" as="geometry" />
        </mxCell>
        <mxCell id="MXWugfOjqB2NSdrZS_m6-18" style="edgeStyle=orthogonalEdgeStyle;rounded=0;orthogonalLoop=1;jettySize=auto;html=1;exitX=0.75;exitY=1;exitDx=0;exitDy=0;entryX=0.75;entryY=0;entryDx=0;entryDy=0;" parent="1" source="MXWugfOjqB2NSdrZS_m6-15" target="MXWugfOjqB2NSdrZS_m6-4" edge="1">
          <mxGeometry relative="1" as="geometry" />
        </mxCell>
        <mxCell id="MXWugfOjqB2NSdrZS_m6-15" value="Partner Management Service" style="rounded=0;whiteSpace=wrap;html=1;" parent="1" vertex="1">
          <mxGeometry x="280" y="20" width="120" height="60" as="geometry" />
        </mxCell>
        <mxCell id="MXWugfOjqB2NSdrZS_m6-17" value="Get Online Verification Partners" style="text;html=1;strokeColor=none;fillColor=none;align=center;verticalAlign=middle;whiteSpace=wrap;rounded=0;" parent="1" vertex="1">
          <mxGeometry x="211" y="95" width="100" height="30" as="geometry" />
        </mxCell>
        <mxCell id="MXWugfOjqB2NSdrZS_m6-19" value="Online Verification Partners List" style="text;html=1;strokeColor=none;fillColor=none;align=center;verticalAlign=middle;whiteSpace=wrap;rounded=0;" parent="1" vertex="1">
          <mxGeometry x="375" y="90" width="116" height="30" as="geometry" />
        </mxCell>
        <mxCell id="MXWugfOjqB2NSdrZS_m6-21" value="Success/Failure&lt;br&gt;status" style="text;html=1;strokeColor=none;fillColor=none;align=center;verticalAlign=middle;whiteSpace=wrap;rounded=0;" parent="1" vertex="1">
          <mxGeometry x="185" y="210" width="60" height="30" as="geometry" />
        </mxCell>
        <mxCell id="MXWugfOjqB2NSdrZS_m6-22" value="Create Credential&amp;nbsp;&lt;br&gt;Request" style="text;html=1;strokeColor=none;fillColor=none;align=center;verticalAlign=middle;whiteSpace=wrap;rounded=0;" parent="1" vertex="1">
          <mxGeometry x="390" y="140" width="116" height="30" as="geometry" />
        </mxCell>
        <mxCell id="MXWugfOjqB2NSdrZS_m6-24" value="Credential Request ID" style="text;html=1;strokeColor=none;fillColor=none;align=center;verticalAlign=middle;whiteSpace=wrap;rounded=0;" parent="1" vertex="1">
          <mxGeometry x="418" y="210" width="82" height="30" as="geometry" />
        </mxCell>
        <mxCell id="MXWugfOjqB2NSdrZS_m6-25" value="IDA DB" style="shape=cylinder3;whiteSpace=wrap;html=1;boundedLbl=1;backgroundOutline=1;size=15;" parent="1" vertex="1">
          <mxGeometry x="310" y="520" width="60" height="80" as="geometry" />
        </mxCell>
        <mxCell id="MXWugfOjqB2NSdrZS_m6-26" value="Credential DB" style="shape=cylinder3;whiteSpace=wrap;html=1;boundedLbl=1;backgroundOutline=1;size=15;" parent="1" vertex="1">
          <mxGeometry x="730" y="190" width="60" height="80" as="geometry" />
        </mxCell>
        <mxCell id="MXWugfOjqB2NSdrZS_m6-30" value="Credential Event" style="text;html=1;strokeColor=none;fillColor=none;align=center;verticalAlign=middle;whiteSpace=wrap;rounded=0;" parent="1" vertex="1">
          <mxGeometry x="410" y="293" width="60" height="30" as="geometry" />
        </mxCell>
        <mxCell id="MXWugfOjqB2NSdrZS_m6-31" value="Credential Event" style="text;html=1;strokeColor=none;fillColor=none;align=center;verticalAlign=middle;whiteSpace=wrap;rounded=0;" parent="1" vertex="1">
          <mxGeometry x="245" y="340" width="60" height="30" as="geometry" />
        </mxCell>
        <mxCell id="MXWugfOjqB2NSdrZS_m6-33" value="Credential Data" style="text;html=1;strokeColor=none;fillColor=none;align=center;verticalAlign=middle;whiteSpace=wrap;rounded=0;" parent="1" vertex="1">
          <mxGeometry x="340" y="470" width="60" height="30" as="geometry" />
        </mxCell>
        <mxCell id="MXWugfOjqB2NSdrZS_m6-34" value="Credential Stored Status" style="text;html=1;strokeColor=none;fillColor=none;align=center;verticalAlign=middle;whiteSpace=wrap;rounded=0;" parent="1" vertex="1">
          <mxGeometry x="380" y="348" width="60" height="30" as="geometry" />
        </mxCell>
        <mxCell id="MXWugfOjqB2NSdrZS_m6-42" style="edgeStyle=orthogonalEdgeStyle;rounded=0;orthogonalLoop=1;jettySize=auto;html=1;exitX=0.75;exitY=0;exitDx=0;exitDy=0;entryX=0.75;entryY=1;entryDx=0;entryDy=0;" parent="1" source="MXWugfOjqB2NSdrZS_m6-39" target="MXWugfOjqB2NSdrZS_m6-9" edge="1">
          <mxGeometry relative="1" as="geometry" />
        </mxCell>
        <mxCell id="MXWugfOjqB2NSdrZS_m6-39" value="Datashare Service" style="rounded=0;whiteSpace=wrap;html=1;" parent="1" vertex="1">
          <mxGeometry x="500" y="395" width="120" height="60" as="geometry" />
        </mxCell>
        <mxCell id="MXWugfOjqB2NSdrZS_m6-43" value="&lt;span style=&quot;color: rgb(0, 0, 0); font-family: helvetica; font-size: 12px; font-style: normal; font-weight: 400; letter-spacing: normal; text-align: center; text-indent: 0px; text-transform: none; word-spacing: 0px; background-color: rgb(248, 249, 250); display: inline; float: none;&quot;&gt;Credential Data&lt;/span&gt;" style="text;whiteSpace=wrap;html=1;" parent="1" vertex="1">
          <mxGeometry x="470" y="356" width="110" height="30" as="geometry" />
        </mxCell>
        <mxCell id="MXWugfOjqB2NSdrZS_m6-44" value="Datashare URL" style="text;html=1;strokeColor=none;fillColor=none;align=center;verticalAlign=middle;whiteSpace=wrap;rounded=0;" parent="1" vertex="1">
          <mxGeometry x="600" y="350" width="70" height="30" as="geometry" />
        </mxCell>
        <mxCell id="MXWugfOjqB2NSdrZS_m6-46" value="Datashare URL" style="text;html=1;strokeColor=none;fillColor=none;align=center;verticalAlign=middle;whiteSpace=wrap;rounded=0;" parent="1" vertex="1">
          <mxGeometry x="400" y="395" width="80" height="25" as="geometry" />
        </mxCell>
        <mxCell id="zSmYZG-ffIdehZfoHpam-28" value="Credential Status" style="text;html=1;strokeColor=none;fillColor=none;align=center;verticalAlign=middle;whiteSpace=wrap;rounded=0;" parent="1" vertex="1">
          <mxGeometry x="410" y="240" width="112" height="30" as="geometry" />
        </mxCell>
        <mxCell id="zSmYZG-ffIdehZfoHpam-30" value="NEW Status" style="text;html=1;strokeColor=none;fillColor=none;align=center;verticalAlign=middle;whiteSpace=wrap;rounded=0;" parent="1" vertex="1">
          <mxGeometry x="630" y="170" width="112" height="30" as="geometry" />
        </mxCell>
        <mxCell id="zSmYZG-ffIdehZfoHpam-31" value="STORED/FAILED Status" style="text;html=1;strokeColor=none;fillColor=none;align=center;verticalAlign=middle;whiteSpace=wrap;rounded=0;" parent="1" vertex="1">
          <mxGeometry x="603" y="230" width="112" height="30" as="geometry" />
        </mxCell>
        <mxCell id="aa3PGpP8SuI-3-ekWRJi-3" value="" style="endArrow=classic;html=1;rounded=0;entryX=0;entryY=0.5;entryDx=0;entryDy=0;exitX=1;exitY=0.5;exitDx=0;exitDy=0;" parent="1" source="MXWugfOjqB2NSdrZS_m6-10" target="MXWugfOjqB2NSdrZS_m6-39" edge="1">
          <mxGeometry width="50" height="50" relative="1" as="geometry">
            <mxPoint x="370" y="370" as="sourcePoint" />
            <mxPoint x="420" y="320" as="targetPoint" />
          </mxGeometry>
        </mxCell>
        <mxCell id="kCgfBGtlBwkCqih8ywTr-1" style="edgeStyle=orthogonalEdgeStyle;rounded=0;orthogonalLoop=1;jettySize=auto;html=1;exitX=0.661;exitY=1;exitDx=0;exitDy=0;entryX=0.667;entryY=0;entryDx=0;entryDy=0;entryPerimeter=0;exitPerimeter=0;" edge="1" parent="1">
          <mxGeometry relative="1" as="geometry">
            <mxPoint x="603.03" y="220.00000000000006" as="sourcePoint" />
            <mxPoint x="603.75" y="270" as="targetPoint" />
            <Array as="points">
              <mxPoint x="602.71" y="245" />
              <mxPoint x="603.71" y="245" />
            </Array>
          </mxGeometry>
        </mxCell>
        <mxCell id="kCgfBGtlBwkCqih8ywTr-2" value="Credential Request IDs" style="text;html=1;strokeColor=none;fillColor=none;align=center;verticalAlign=middle;whiteSpace=wrap;rounded=0;" vertex="1" parent="1">
          <mxGeometry x="527" y="227" width="82" height="30" as="geometry" />
        </mxCell>
      </root>
    </mxGraphModel>
  </diagram>
</mxfile>
